# xmcd
#
# Track frame offsets:
#	150
#	18098
#	37571
#	56747
#	69139
#	82188
#	92966
#	104919
#	114998
#	129036
#	142016
#	152844
#	164830
#	175777
#	187675
#	201517
#	212951
#	224257
#	233154
#	243207
#
# Disc length: 3427 seconds
#
# Revision: 1
# Processed by: cddbd v1.5.2PL0 Copyright (c) Steve Scherf et al.
# Submitted via: audiograbber 1.82.02
#
DISCID=160d6114
DTITLE=Various Artist - Country Roads Vol 9
DYEAR=1999
DGENRE=Country
TTITLE0=Ricky Nelson - Garden Party
TTITLE1=Everly Brothers - Love Is Strange
TTITLE2=Nashville Session Singers - Get Away
TTITLE3=Ray Price - Let It Rain, Let Her Cry
TTITLE4=Johnny Tillotson - It Keeps Right On A Hurtin'
TTITLE5=Ferlin Husky - Gone
TTITLE6=Conway Twitty - Sittin' In A Dim Cafe
TTITLE7=Buck Owens - Rhythm And Booze
TTITLE8=John Denver - This Old Guitar
TTITLE9=Jim Reeves - Four Walls
TTITLE10=Johnny Cash - Cry, Cry, Cry
TTITLE11=Wanda Jackson - Right Or Wrong
TTITLE12=Don Davis Jr - Minnesota Bay
TTITLE13=Hank Williams - Long Gone Lonesome Blues
TTITLE14=Warner Mack - Amazing Grace
TTITLE15=Donna Fargo - The Happiest Girl In The USA
TTITLE16=Merle Kilgore - Love Has Made You Beautiful
TTITLE17=Rob Luman - Let's Think About Living
TTITLE18=Waylon Jennings - Whight Lightning
TTITLE19=George Jones - A Good Year For Roses
EXTD=
EXTT0=
EXTT1=
EXTT2=
EXTT3=
EXTT4=
EXTT5=
EXTT6=
EXTT7=
EXTT8=
EXTT9=
EXTT10=
EXTT11=
EXTT12=
EXTT13=
EXTT14=
EXTT15=
EXTT16=
EXTT17=
EXTT18=
EXTT19=
PLAYORDER=
